<?xml version="1.0" encoding="utf-8"?>
<!-- Generator: Adobe Illustrator 27.0.0, SVG Export Plug-In . SVG Version: 6.00 Build 0)  -->
<svg version="1.1" id="Layer_1" xmlns="http://www.w3.org/2000/svg" xmlns:xlink="http://www.w3.org/1999/xlink" x="0px" y="0px"
	 viewBox="0 0 139 20" style="enable-background:new 0 0 139 20;" xml:space="preserve">
<style type="text/css">
	.st0{fill:none;}
	.st1{fill-rule:evenodd;clip-rule:evenodd;fill:url(#SVGID_1_);}
	
		.st2{opacity:0.5;fill-rule:evenodd;clip-rule:evenodd;fill:url(#SVGID_00000150795821667647746590000014974712632879164556_);enable-background:new    ;}
	
		.st3{opacity:0.15;fill-rule:evenodd;clip-rule:evenodd;fill:url(#SVGID_00000031202369390519832740000001187476881396837817_);enable-background:new    ;}
	.st4{fill:#FFFFFF;}
</style>
<g>
	<g>
		<path class="st0" d="M0,0.4"/>
		<g>
			
				<linearGradient id="SVGID_1_" gradientUnits="userSpaceOnUse" x1="-441.2439" y1="524.1082" x2="-441.7908" y2="523.1082" gradientTransform="matrix(16.789 0 0 -19.704 7420.8296 10327.9043)">
				<stop  offset="0" style="stop-color:#33D35E"/>
				<stop  offset="1" style="stop-color:#2AB6D9"/>
			</linearGradient>
			<path class="st1" d="M10.8,0.4L0,20.2h6L16.8,0.4H10.8z"/>
			
				<linearGradient id="SVGID_00000086670534164692966610000007787747641773660835_" gradientUnits="userSpaceOnUse" x1="-441.2439" y1="524.1082" x2="-441.7908" y2="523.1082" gradientTransform="matrix(16.789 0 0 -19.704 7428.1978 10327.9043)">
				<stop  offset="0" style="stop-color:#33D35E"/>
				<stop  offset="1" style="stop-color:#2AB6D9"/>
			</linearGradient>
			
				<path style="opacity:0.5;fill-rule:evenodd;clip-rule:evenodd;fill:url(#SVGID_00000086670534164692966610000007787747641773660835_);enable-background:new    ;" d="
				M18.2,0.4L7.4,20.2h6L24.2,0.4H18.2z"/>
			
				<linearGradient id="SVGID_00000159435174240714427740000002172964255504590219_" gradientUnits="userSpaceOnUse" x1="-441.2422" y1="524.1082" x2="-441.7891" y2="523.1082" gradientTransform="matrix(16.788 0 0 -19.704 7435.0962 10327.9043)">
				<stop  offset="0" style="stop-color:#33D35E"/>
				<stop  offset="1" style="stop-color:#2AB6D9"/>
			</linearGradient>
			
				<path style="opacity:0.15;fill-rule:evenodd;clip-rule:evenodd;fill:url(#SVGID_00000159435174240714427740000002172964255504590219_);enable-background:new    ;" d="
				M25.5,0.4L14.7,20.2h6L31.5,0.4H25.5z"/>
		</g>
	</g>
	<g>
		<path class="st4" d="M41.3,11.3h-7.9c0.1,0.7,0.3,1.3,0.7,1.6c0.4,0.4,0.9,0.6,1.5,0.6c0.9,0,1.5-0.4,1.8-1.1h3.7
			c-0.2,0.8-0.5,1.4-1,2c-0.5,0.6-1.1,1.1-1.9,1.4s-1.6,0.5-2.5,0.5c-1.1,0-2.1-0.2-3-0.7c-0.9-0.5-1.6-1.2-2.1-2.1
			c-0.5-0.9-0.7-1.9-0.7-3.1s0.2-2.2,0.7-3.1s1.2-1.6,2-2.1c0.9-0.5,1.9-0.7,3-0.7c1.1,0,2.1,0.2,3,0.7c0.9,0.5,1.5,1.1,2,2
			c0.5,0.9,0.7,1.9,0.7,3C41.4,10.6,41.4,10.9,41.3,11.3z M37.8,9.3c0-0.6-0.2-1.1-0.6-1.4c-0.4-0.4-0.9-0.5-1.5-0.5
			c-0.6,0-1.1,0.2-1.5,0.5c-0.4,0.3-0.7,0.8-0.7,1.5H37.8z"/>
		<path class="st4" d="M43.2,7.3c0.4-0.9,1.1-1.6,1.8-2.1c0.8-0.5,1.6-0.7,2.6-0.7c0.8,0,1.5,0.2,2.1,0.5c0.6,0.3,1.1,0.8,1.4,1.3
			V4.7h3.5v11.5h-3.5v-1.6c-0.3,0.5-0.8,1-1.4,1.3c-0.6,0.3-1.3,0.5-2.1,0.5c-0.9,0-1.8-0.2-2.5-0.7c-0.8-0.5-1.4-1.2-1.8-2.1
			s-0.7-1.9-0.7-3.1C42.5,9.3,42.8,8.2,43.2,7.3z M50.4,8.4c-0.5-0.5-1.1-0.8-1.8-0.8s-1.3,0.2-1.8,0.7c-0.5,0.5-0.7,1.2-0.7,2.1
			c0,0.9,0.2,1.6,0.7,2.1c0.5,0.5,1.1,0.8,1.8,0.8s1.3-0.3,1.8-0.8c0.5-0.5,0.7-1.2,0.7-2.1C51.1,9.6,50.9,8.9,50.4,8.4z"/>
		<path class="st4" d="M59.2,15.8c-0.8-0.3-1.4-0.8-1.8-1.4c-0.5-0.6-0.7-1.3-0.8-2H60c0,0.4,0.2,0.7,0.6,1c0.3,0.2,0.7,0.4,1.2,0.4
			c0.4,0,0.8-0.1,1-0.3c0.2-0.2,0.4-0.4,0.4-0.7c0-0.3-0.2-0.6-0.5-0.7c-0.3-0.2-0.9-0.3-1.7-0.5c-0.8-0.2-1.5-0.4-2.1-0.6
			c-0.5-0.2-1-0.5-1.4-1c-0.4-0.5-0.6-1.1-0.6-1.9c0-0.7,0.2-1.3,0.5-1.8c0.4-0.5,0.9-1,1.6-1.3c0.7-0.3,1.5-0.5,2.5-0.5
			c1.4,0,2.6,0.4,3.4,1.1c0.8,0.7,1.3,1.7,1.4,2.8h-3.2c-0.1-0.4-0.2-0.7-0.5-0.9c-0.3-0.2-0.7-0.3-1.2-0.3c-0.4,0-0.7,0.1-0.9,0.2
			S60.2,7.8,60.2,8c0,0.3,0.2,0.6,0.5,0.7c0.3,0.2,0.9,0.3,1.6,0.5c0.8,0.2,1.5,0.4,2.1,0.6c0.5,0.2,1,0.6,1.4,1s0.6,1.1,0.6,1.9
			c0,0.7-0.2,1.3-0.6,1.8c-0.4,0.5-0.9,0.9-1.6,1.2s-1.5,0.5-2.5,0.5C60.8,16.3,60,16.2,59.2,15.8z"/>
		<path class="st4" d="M80.3,4.7l-7.2,16.9h-3.8l2.6-5.8L67.3,4.7h3.9l2.6,7.2l2.6-7.2H80.3z"/>
		<path class="st4" d="M86.5,5.1c0.6-0.3,1.3-0.5,2.1-0.5c0.9,0,1.8,0.2,2.6,0.7s1.4,1.2,1.8,2.1s0.7,1.9,0.7,3.1
			c0,1.2-0.2,2.2-0.7,3.1s-1,1.6-1.8,2.1c-0.8,0.5-1.6,0.7-2.6,0.7c-0.8,0-1.5-0.2-2.1-0.5c-0.6-0.3-1.1-0.7-1.4-1.3v1.6h-3.5V1h3.5
			v5.4C85.4,5.8,85.9,5.4,86.5,5.1z M89.4,8.4c-0.5-0.5-1.1-0.7-1.8-0.7c-0.7,0-1.3,0.3-1.8,0.8c-0.5,0.5-0.7,1.2-0.7,2.1
			c0,0.9,0.2,1.6,0.7,2.1c0.5,0.5,1.1,0.8,1.8,0.8c0.7,0,1.3-0.3,1.8-0.8c0.5-0.5,0.7-1.2,0.7-2.1C90.1,9.6,89.9,8.9,89.4,8.4z"/>
		<path class="st4" d="M95.5,7.3c0.4-0.9,1-1.6,1.8-2.1c0.8-0.5,1.6-0.7,2.6-0.7c0.8,0,1.5,0.2,2.1,0.5c0.6,0.3,1.1,0.8,1.4,1.3V4.7
			h3.5v11.5h-3.5v-1.6c-0.3,0.5-0.8,1-1.4,1.3c-0.6,0.3-1.3,0.5-2.1,0.5c-0.9,0-1.8-0.2-2.5-0.7c-0.8-0.5-1.4-1.2-1.8-2.1
			c-0.4-0.9-0.7-1.9-0.7-3.1C94.8,9.3,95.1,8.2,95.5,7.3z M102.7,8.4c-0.5-0.5-1.1-0.8-1.8-0.8s-1.3,0.2-1.8,0.7
			c-0.5,0.5-0.7,1.2-0.7,2.1c0,0.9,0.2,1.6,0.7,2.1c0.5,0.5,1.1,0.8,1.8,0.8s1.3-0.3,1.8-0.8c0.5-0.5,0.7-1.2,0.7-2.1
			C103.4,9.6,103.2,8.9,102.7,8.4z"/>
		<path class="st4" d="M119.7,5.9c0.8,0.9,1.2,2.1,1.2,3.6v6.7h-3.5V10c0-0.8-0.2-1.4-0.6-1.8c-0.4-0.4-0.9-0.6-1.6-0.6
			c-0.7,0-1.2,0.2-1.6,0.6c-0.4,0.4-0.6,1-0.6,1.8v6.2h-3.5V4.7h3.5v1.5c0.4-0.5,0.8-0.9,1.4-1.2c0.6-0.3,1.3-0.4,2-0.4
			C117.8,4.6,118.9,5,119.7,5.9z"/>
		<path class="st4" d="M130.3,16.2l-3.5-4.8v4.8h-3.5V1h3.5v8.4l3.5-4.7h4.3l-4.8,5.7l4.8,5.7H130.3z"/>
	</g>
</g>
</svg>
